<?xml version="1.0" encoding="utf-8"?>
<!-- Generator: Adobe Illustrator 19.0.0, SVG Export Plug-In . SVG Version: 6.00 Build 0)  -->
<svg version="1.1" id="Layer_1" xmlns="http://www.w3.org/2000/svg" xmlns:xlink="http://www.w3.org/1999/xlink" x="0px" y="0px"
	 viewBox="0 0 65 50" style="enable-background:new 0 0 65 50;" xml:space="preserve"  width="65px" height="65px">
<style type="text/css">
	.st0{clip-path:url(#SVGID_2_);fill:none;stroke:#ff3600;stroke-miterlimit:10;}
	.st1{clip-path:url(#SVGID_2_);fill:none;stroke:#ff3600;}
</style>
<g>
	<defs>
		<rect id="SVGID_1_" width="65" height="50"/>
	</defs>
	<clipPath id="SVGID_2_">
		<use xlink:href="#SVGID_1_"  style="overflow:visible;"/>
	</clipPath>
	<polygon class="st0" points="16.7,39.4 14.8,39.4 20,33.3 25,39.4 22.9,39.4 22.9,49.3 16.9,49.3 	"/>
	<polygon class="st0" points="29.3,34.2 27.3,34.2 32.6,28.1 37.5,34.2 35.5,34.2 35.4,49.3 29.5,49.3 	"/>
	<polygon class="st0" points="42.3,29.8 40.3,29.8 45.6,23.7 50.5,29.8 48.4,29.8 48.4,49.3 42.4,49.3 	"/>
	<circle class="st0" cx="32.4" cy="13" r="12.1"/>
	<circle class="st0" cx="32.5" cy="12.9" r="8"/>
	<line class="st0" x1="13.6" y1="2.9" x2="17.9" y2="5.7"/>
	<line class="st0" x1="13.2" y1="19.4" x2="17.6" y2="16.4"/>
	<line class="st0" x1="10.4" y1="11.1" x2="17" y2="11.1"/>
	<line class="st0" x1="51.2" y1="20.1" x2="46.9" y2="17.2"/>
	<line class="st0" x1="51.6" y1="3.6" x2="47.2" y2="6.5"/>
	<line class="st0" x1="54.4" y1="11.9" x2="47.8" y2="11.9"/>
	<path class="st1" d="M34.6,9.5l-0.3,0.8c0,0-2.2-1.1-2.9,0.3c0,0-0.6,1.1,1.4,1.7c0,0,1.8,0.6,2,1.8c0,0,0.5,1.9-1.7,2.5l-0.3,0.1
		v1.3h-0.8l0-1.2c0,0-1.1,0-2-0.6l0.3-0.8c0,0,1.6,0.9,2.8,0.3c0,0,1.4-1-0.2-2.1c0,0-0.6-0.3-1.2-0.5c-0.5-0.2-1.3-0.8-1.5-1.3
		S30,10.5,31,9.6c0,0,0.5-0.4,1.2-0.5l0-1.2H33L33,9C33,9,34,9.1,34.6,9.5"/>
</g>
</svg>
